<svg xmlns="http://www.w3.org/2000/svg" viewBox="0 0 64 64">
  <rect width="64" height="64" rx="16" fill="#2563eb"/>
  <g>
    <ellipse cx="32" cy="44" rx="18" ry="6" fill="#fff" opacity=".15"/>
    <path d="M16 36c0-4 8-8 16-8s16 4 16 8c0 2-2 4-6 4H22c-4 0-6-2-6-4z" fill="#fff"/>
    <path d="M48 36c0-3.3-7.2-6-16-6s-16 2.7-16 6c0 1.7 1.7 3.2 4.5 3.8.7.1 1.5.2 2.3.2h18.4c.8 0 1.6-.1 2.3-.2C46.3 39.2 48 37.7 48 36z" fill="#f9d923"/>
    <ellipse cx="32" cy="36" rx="10" ry="3" fill="#fff" opacity=".3"/>
    <ellipse cx="32" cy="36" rx="6" ry="2" fill="#f9d923"/>
    <ellipse cx="32" cy="36" rx="3" ry="1" fill="#fff" opacity=".5"/>
    <path d="M44 32c0-2.2-5.4-4-12-4s-12 1.8-12 4c0 1.1 1.1 2.1 3 2.7.5.1 1.1.2 1.7.2h14.6c.6 0 1.2-.1 1.7-.2 1.9-.6 3-1.6 3-2.7z" fill="#f9d923"/>
    <ellipse cx="32" cy="32" rx="8" ry="2" fill="#fff" opacity=".3"/>
    <ellipse cx="32" cy="32" rx="4" ry="1" fill="#f9d923"/>
    <ellipse cx="32" cy="32" rx="2" ry=".5" fill="#fff" opacity=".5"/>
    <path d="M32 24c-2.2 0-4-1.8-4-4 0-1.1.9-2 2-2s2 .9 2 2c0 .6.4 1 1 1s1-.4 1-1c0-2.2-1.8-4-4-4s-4 1.8-4 4c0 3.3 2.7 6 6 6s6-2.7 6-6c0-2.2-1.8-4-4-4z" fill="#fff"/>
  </g>
</svg> 